# xmcd CD database file
#
# Track frame offsets:
#	150
#	10864
#	21785
#	32520
#	43739
#	57470
#	67765
#	79784
#	91313
#	104099
#	117659
#	131244
#	142175
#	150094
#	163905
#	175237
#	187981
#	199469
#	211947
#
# Disc length: 2983 seconds
#
# Revision: 2
# Processed by: cddbd v1.5.2PL0 Copyright (c) Steve Scherf et al.
# Submitted via: CDex 1.78
#
DISCID=0d0ba513
DTITLE=Etta James - Singles 1957 - 1962
DYEAR=2013
DGENRE=Blues
TTITLE0=Dance With Me Henry
TTITLE1=Sunshine Of Your Love
TTITLE2=Baby Baby Every Night
TTITLE3=Strange Things Happening
TTITLE4=I Hope You're Satisfied
TTITLE5=If It Ain't One Thing
TTITLE6=How Big A Fool
TTITLE7=My Heart Cries
TTITLE8=It's A Crying Shame
TTITLE9=Don't You Remember
TTITLE10=Hickory Dickory Dock
TTITLE11=Nobody Loves You Like Me
TTITLE12=We're In Love
TTITLE13=You Know What I Mean
TTITLE14=Good Rockin' Daddy (Alternate Mix)
TTITLE15=Stop The Wedding
TTITLE16=Street Of Tears
TTITLE17=Next Door To The Blues
TTITLE18=Would I Make Any Difference To You
EXTD=YEAR: 2013
EXTT0=
EXTT1=
EXTT2=
EXTT3=
EXTT4=
EXTT5=
EXTT6=
EXTT7=
EXTT8=
EXTT9=
EXTT10=
EXTT11=
EXTT12=
EXTT13=
EXTT14=
EXTT15=
EXTT16=
EXTT17=
EXTT18=
PLAYORDER=
